<svg width="33" height="33" viewBox="0 0 33 33" fill="none" xmlns="http://www.w3.org/2000/svg">
<g clip-path="url(#clip0_85_497)">
<path d="M4.00003 22.1563C4.0928 21.8953 4.31839 21.8138 4.48978 21.6468C7.03909 19.1626 8.31839 15.7183 8.39456 12.3358H28.9512C28.8897 15.4622 27.8853 18.74 25.8658 21.2816C25.5664 21.6584 24.5391 22.8493 24.1031 22.966L4.49612 22.9709C4.21243 22.8965 4.14554 22.7103 3.99954 22.5121V22.1568L4.00003 22.1563Z" fill="url(#paint0_linear_85_497)"/>
<path d="M29 26.5115C28.8545 26.7658 28.7422 26.8682 28.4629 27.0005H8.98047C8.88867 26.9029 8.73486 26.8971 8.6377 26.8014C8.60986 26.7742 8.44336 26.507 8.44336 26.4892V24.3341H24.1416C25.1782 24.3341 26.6255 22.6289 27.1846 21.9043C27.9072 20.9672 28.4819 19.9545 29 18.9128V26.5115Z" fill="url(#paint1_linear_85_497)"/>
<path d="M29 11.0029H8.44336V8.84779C8.44336 8.66964 8.83496 8.33474 9.05811 8.34053L12.8379 8.33652V7.51439C12.8379 7.24451 13.312 6.99377 13.5947 7.00001C13.8584 7.00624 14.3027 7.26589 14.3027 7.51439V8.33652H17.9648V7.51439C17.9648 7.24451 18.439 6.99333 18.7217 7.00001C18.9854 7.00624 19.4297 7.26589 19.4297 7.51439V8.33652H23.1406V7.51439C23.1406 7.24451 23.6147 6.99333 23.8975 7.00001C24.1611 7.00624 24.6055 7.26589 24.6055 7.51439V8.33652L28.3853 8.34053C28.7041 8.38729 28.8677 8.58102 29 8.82552V11.0029Z" fill="url(#paint2_linear_85_497)"/>
</g>
<defs>
<linearGradient id="paint0_linear_85_497" x1="28.9512" y1="17.6533" x2="3.99954" y2="17.6533" gradientUnits="userSpaceOnUse">
<stop stop-color="#00379D"/>
<stop offset="1" stop-color="#2466C9"/>
</linearGradient>
<linearGradient id="paint1_linear_85_497" x1="29" y1="22.9566" x2="8.44336" y2="22.9566" gradientUnits="userSpaceOnUse">
<stop stop-color="#00379D"/>
<stop offset="1" stop-color="#2466C9"/>
</linearGradient>
<linearGradient id="paint2_linear_85_497" x1="29" y1="9.00137" x2="8.44336" y2="9.00137" gradientUnits="userSpaceOnUse">
<stop stop-color="#00379D"/>
<stop offset="1" stop-color="#2466C9"/>
</linearGradient>
<clipPath id="clip0_85_497">
<rect width="25" height="20" fill="white" transform="translate(4 7)"/>
</clipPath>
</defs>
</svg>
