<svg width="33" height="33" viewBox="0 0 33 33" fill="none" xmlns="http://www.w3.org/2000/svg">
<g clip-path="url(#clip0_85_505)">
<path d="M24.8 25.605C24.7186 26.802 23.989 27.7463 23.0728 28.3965C20.124 30.4885 14.3276 30.4954 11.2776 28.6412C8.51745 26.9632 8.50329 24.1327 11.2589 22.4424C11.4718 22.3117 12.5599 21.7514 12.7328 21.7579C12.7748 21.7595 12.8056 21.7718 12.8289 21.8098L15.0739 25.47C16.1923 26.9081 18.186 26.7008 19.1254 25.1722L21.204 21.752C22.5298 22.1521 24.2661 23.2088 24.662 24.709C24.7085 24.8846 24.793 25.2253 24.8 25.3908V25.6044V25.605Z" fill="url(#paint0_linear_85_505)"/>
<path d="M16.3227 4.02732C21.6363 3.56618 25.6126 9.00987 23.8297 14.34C22.0793 17.8851 19.7933 21.1211 17.8159 24.5317C17.3446 25.0774 16.5665 25.0276 16.1609 24.424L10.6982 15.4658C8.12002 10.6986 11.1502 4.47614 16.3227 4.02732ZM16.7262 7.92906C13.5631 8.21613 12.3303 12.4114 14.77 14.5682C16.4117 16.0196 18.9308 15.552 20.0335 13.6277C21.5251 11.0242 19.586 7.6693 16.7262 7.92906Z" fill="url(#paint1_linear_85_505)"/>
</g>
<defs>
<linearGradient id="paint0_linear_85_505" x1="24.8" y1="25.8761" x2="9.19983" y2="25.8761" gradientUnits="userSpaceOnUse">
<stop stop-color="#00379D"/>
<stop offset="1" stop-color="#2466C9"/>
</linearGradient>
<linearGradient id="paint1_linear_85_505" x1="24.2617" y1="14.4554" x2="9.76196" y2="14.4554" gradientUnits="userSpaceOnUse">
<stop stop-color="#00379D"/>
<stop offset="1" stop-color="#2466C9"/>
</linearGradient>
<clipPath id="clip0_85_505">
<rect width="15.6" height="26" fill="white" transform="translate(9.20001 4)"/>
</clipPath>
</defs>
</svg>
