<svg width="33" height="33" viewBox="0 0 33 33" fill="none" xmlns="http://www.w3.org/2000/svg">
<g clip-path="url(#clip0_85_491)">
<path d="M15.5624 29.9821C10.9342 29.7963 6.94749 28.3715 6.99999 22.9947C7.04222 18.7469 10.6479 15.4509 13.4567 12.7205C12.8472 12.7568 12.1673 12.5303 12.182 11.8109C12.1885 11.481 12.5473 10.9647 12.8905 10.9647H14.2671C13.8519 9.84489 13.0984 8.84266 12.6556 7.74237C12.0623 6.26828 12.6989 4.57749 14.286 4.14951C15.0309 3.94853 17.286 3.98807 18.1288 4.04712C19.9985 4.17823 21.1206 6.06296 20.3379 7.77542L18.6934 10.9647H20.1241C20.3671 10.9647 20.7563 11.3975 20.7953 11.6435C20.929 12.4919 20.2886 12.7497 19.5579 12.7205C22.8182 15.8718 26.603 19.3661 25.9199 24.3826C25.3163 28.8141 21.2781 29.8277 17.4527 29.9816C16.854 30.0054 16.1622 30.0054 15.5635 29.9816L15.5624 29.9821ZM17.3439 16.1519C17.3558 15.5343 17.4771 14.5689 16.6564 14.4362C15.5938 14.2639 15.5413 15.3875 15.6171 16.1519C13.047 16.1606 12.0266 19.5703 14.2498 20.9501C15.3497 21.6327 16.3977 21.162 17.5198 21.351C18.4438 21.5065 18.4736 22.9719 17.3731 23.0689C16.513 23.1447 15.458 22.9578 14.6227 23.0716C13.9975 23.1567 13.6846 23.888 14.0267 24.4146C14.3797 24.958 15.0677 24.7629 15.6166 24.7949C15.5332 25.5544 15.6047 26.6807 16.6559 26.5112C17.4765 26.3784 17.3553 25.4119 17.3434 24.7954C19.8761 24.7841 20.922 21.4648 18.7751 20.04C17.6432 19.2886 16.6066 19.7924 15.4401 19.5963C14.5166 19.4408 14.4858 17.9759 15.5868 17.8784C16.4469 17.802 17.502 17.9895 18.3372 17.8757C19.0923 17.7728 19.3446 16.7554 18.7199 16.3133C18.3291 16.0365 17.7932 16.1893 17.3428 16.1519H17.3439Z" fill="url(#paint0_linear_85_491)"/>
</g>
<defs>
<linearGradient id="paint0_linear_85_491" x1="26.0006" y1="16.9994" x2="6.99948" y2="16.9994" gradientUnits="userSpaceOnUse">
<stop stop-color="#00379D"/>
<stop offset="1" stop-color="#2466C9"/>
</linearGradient>
<clipPath id="clip0_85_491">
<rect width="19" height="26" fill="white" transform="translate(7 4)"/>
</clipPath>
</defs>
</svg>
